<svg width="360" height="640" viewBox="0 0 360 640" fill="none" xmlns="http://www.w3.org/2000/svg">
<rect width="360" height="640" fill="#F9F9F9"/>
<line x1="95.3806" y1="433.759" x2="76.1892" y2="452.51" stroke="#FDB913" stroke-width="2.3801"/>
<line x1="101.533" y1="475.793" x2="82.3418" y2="494.543" stroke="#FDB913" stroke-width="2.3801"/>
<line x1="100.514" y1="452.054" x2="81.3363" y2="433.29" stroke="#FDB913" stroke-width="2.3801"/>
<line x1="81.9088" y1="445.647" x2="75.2983" y2="439.623" stroke="#FDB913" stroke-width="2.3801"/>
<line x1="101.42" y1="487.958" x2="94.8094" y2="481.934" stroke="#FDB913" stroke-width="2.3801"/>
<line x1="94.3595" y1="444.659" x2="100.779" y2="438.432" stroke="#FDB913" stroke-width="2.3801"/>
<line x1="76.0637" y1="488.554" x2="82.4832" y2="482.327" stroke="#FDB913" stroke-width="2.3801"/>
<line x1="95.4686" y1="494.161" x2="76.2906" y2="475.397" stroke="#FDB913" stroke-width="2.3801"/>
<line x1="74.9032" y1="463.577" x2="87.574" y2="450.952" stroke="#FDB913" stroke-width="2.3801"/>
<line x1="81.0655" y1="469.055" x2="93.7363" y2="456.43" stroke="#FDB913" stroke-width="2.3801"/>
<line x1="87.8523" y1="475.805" x2="100.523" y2="463.18" stroke="#FDB913" stroke-width="2.3801"/>
<line x1="101.32" y1="476.569" x2="75.749" y2="451.551" stroke="#FDB913" stroke-width="2.3801"/>
<line x1="217.791" y1="436.48" x2="198.599" y2="455.231" stroke="#006A44" stroke-width="2.3801"/>
<line x1="223.943" y1="478.513" x2="204.752" y2="497.264" stroke="#006A44" stroke-width="2.3801"/>
<line x1="222.925" y1="454.774" x2="203.746" y2="436.01" stroke="#006A44" stroke-width="2.3801"/>
<line x1="204.319" y1="448.368" x2="197.708" y2="442.344" stroke="#006A44" stroke-width="2.3801"/>
<line x1="223.83" y1="490.678" x2="217.22" y2="484.654" stroke="#006A44" stroke-width="2.3801"/>
<line x1="216.77" y1="447.38" x2="223.189" y2="441.153" stroke="#006A44" stroke-width="2.3801"/>
<line x1="198.474" y1="491.275" x2="204.893" y2="485.048" stroke="#006A44" stroke-width="2.3801"/>
<line x1="217.879" y1="496.882" x2="198.701" y2="478.118" stroke="#006A44" stroke-width="2.3801"/>
<line x1="197.313" y1="466.298" x2="209.984" y2="453.672" stroke="#006A44" stroke-width="2.3801"/>
<line x1="203.476" y1="471.776" x2="216.146" y2="459.151" stroke="#006A44" stroke-width="2.3801"/>
<line x1="210.262" y1="478.526" x2="222.933" y2="465.901" stroke="#006A44" stroke-width="2.3801"/>
<line x1="223.73" y1="479.29" x2="198.159" y2="454.271" stroke="#006A44" stroke-width="2.3801"/>
<line x1="345.641" y1="433.759" x2="326.45" y2="452.51" stroke="#C1272D" stroke-width="2.3801"/>
<line x1="351.794" y1="475.793" x2="332.603" y2="494.543" stroke="#C1272D" stroke-width="2.3801"/>
<line x1="350.775" y1="452.054" x2="331.597" y2="433.29" stroke="#C1272D" stroke-width="2.3801"/>
<line x1="332.169" y1="445.647" x2="325.559" y2="439.623" stroke="#C1272D" stroke-width="2.3801"/>
<line x1="351.681" y1="487.958" x2="345.07" y2="481.934" stroke="#C1272D" stroke-width="2.3801"/>
<line x1="344.62" y1="444.659" x2="351.04" y2="438.432" stroke="#C1272D" stroke-width="2.3801"/>
<line x1="326.324" y1="488.554" x2="332.744" y2="482.327" stroke="#C1272D" stroke-width="2.3801"/>
<line x1="345.73" y1="494.161" x2="326.551" y2="475.397" stroke="#C1272D" stroke-width="2.3801"/>
<line x1="325.164" y1="463.577" x2="337.835" y2="450.952" stroke="#C1272D" stroke-width="2.3801"/>
<line x1="331.326" y1="469.055" x2="343.997" y2="456.43" stroke="#C1272D" stroke-width="2.3801"/>
<line x1="338.113" y1="475.805" x2="350.784" y2="463.18" stroke="#C1272D" stroke-width="2.3801"/>
<line x1="351.581" y1="476.569" x2="326.01" y2="451.551" stroke="#C1272D" stroke-width="2.3801"/>
<rect x="20.7031" y="442.995" width="16.764" height="16.764" transform="rotate(45.4042 20.7031 442.995)" stroke="#FDB913" stroke-width="1.86267"/>
<rect x="20.6597" y="449.141" width="8.07156" height="8.07156" transform="rotate(45.4042 20.6597 449.141)" stroke="#FDB913" stroke-width="1.86267"/>
<line x1="0.66484" y1="461.835" x2="27.1199" y2="435.606" stroke="#FDB913" stroke-width="1.86267"/>
<line x1="13.6244" y1="473.719" x2="40.0795" y2="447.491" stroke="#FDB913" stroke-width="1.86267"/>
<line x1="26.5315" y1="448.602" x2="33.6711" y2="441.524" stroke="#FDB913" stroke-width="1.86267"/>
<line x1="7.42778" y1="467.612" x2="14.5674" y2="460.534" stroke="#FDB913" stroke-width="1.86267"/>
<line x1="7.18289" y1="441.021" x2="14.0377" y2="448.376" stroke="#FDB913" stroke-width="1.86267"/>
<line x1="26.2906" y1="460.581" x2="33.3428" y2="467.747" stroke="#FDB913" stroke-width="1.86267"/>
<rect x="20.0824" y="442.991" width="16.764" height="16.764" transform="rotate(45.4042 20.0824 442.991)" stroke="#FDB913" stroke-width="1.86267"/>
<line x1="13.3355" y1="435.514" x2="39.5012" y2="462.031" stroke="#FDB913" stroke-width="1.86267"/>
<line x1="0.839205" y1="447.227" x2="27.0048" y2="473.744" stroke="#FDB913" stroke-width="1.86267"/>
<rect x="143.113" y="445.714" width="16.764" height="16.764" transform="rotate(45.4042 143.113 445.714)" stroke="#006A44" stroke-width="1.86267"/>
<rect x="143.07" y="451.86" width="8.07156" height="8.07156" transform="rotate(45.4042 143.07 451.86)" stroke="#006A44" stroke-width="1.86267"/>
<line x1="123.075" y1="464.555" x2="149.53" y2="438.327" stroke="#006A44" stroke-width="1.86267"/>
<line x1="136.035" y1="476.44" x2="162.49" y2="450.212" stroke="#006A44" stroke-width="1.86267"/>
<line x1="148.942" y1="451.323" x2="156.081" y2="444.245" stroke="#006A44" stroke-width="1.86267"/>
<line x1="129.838" y1="470.333" x2="136.977" y2="463.254" stroke="#006A44" stroke-width="1.86267"/>
<line x1="129.593" y1="443.74" x2="136.448" y2="451.095" stroke="#006A44" stroke-width="1.86267"/>
<line x1="148.701" y1="463.3" x2="155.753" y2="470.465" stroke="#006A44" stroke-width="1.86267"/>
<rect x="142.493" y="445.71" width="16.764" height="16.764" transform="rotate(45.4042 142.493 445.71)" stroke="#006A44" stroke-width="1.86267"/>
<line x1="135.746" y1="438.233" x2="161.911" y2="464.75" stroke="#006A44" stroke-width="1.86267"/>
<line x1="123.249" y1="449.947" x2="149.415" y2="476.465" stroke="#006A44" stroke-width="1.86267"/>
<rect x="270.964" y="442.995" width="16.764" height="16.764" transform="rotate(45.4042 270.964 442.995)" stroke="#C1272D" stroke-width="1.86267"/>
<rect x="270.92" y="449.141" width="8.07156" height="8.07156" transform="rotate(45.4042 270.92 449.141)" stroke="#C1272D" stroke-width="1.86267"/>
<line x1="250.925" y1="461.835" x2="277.38" y2="435.606" stroke="#C1272D" stroke-width="1.86267"/>
<line x1="263.885" y1="473.719" x2="290.34" y2="447.491" stroke="#C1272D" stroke-width="1.86267"/>
<line x1="276.792" y1="448.602" x2="283.932" y2="441.524" stroke="#C1272D" stroke-width="1.86267"/>
<line x1="257.688" y1="467.612" x2="264.828" y2="460.534" stroke="#C1272D" stroke-width="1.86267"/>
<line x1="257.444" y1="441.021" x2="264.298" y2="448.376" stroke="#C1272D" stroke-width="1.86267"/>
<line x1="276.551" y1="460.581" x2="283.603" y2="467.747" stroke="#C1272D" stroke-width="1.86267"/>
<rect x="270.343" y="442.991" width="16.764" height="16.764" transform="rotate(45.4042 270.343 442.991)" stroke="#C1272D" stroke-width="1.86267"/>
<line x1="263.596" y1="435.514" x2="289.762" y2="462.031" stroke="#C1272D" stroke-width="1.86267"/>
<line x1="251.1" y1="447.227" x2="277.265" y2="473.744" stroke="#C1272D" stroke-width="1.86267"/>
<line y1="-1.47346" x2="44.3593" y2="-1.47346" transform="matrix(0.725846 -0.687857 0.462369 0.886688 5.44043 429.025)" stroke="#FDB913" stroke-width="2.94691"/>
<line y1="-1.47346" x2="44.3593" y2="-1.47346" transform="matrix(0.716596 0.697489 -0.474169 0.880434 35.1213 398.197)" stroke="#FDB913" stroke-width="2.94691"/>
<line y1="-1.47346" x2="44.3593" y2="-1.47346" transform="matrix(0.725846 -0.687857 0.462369 0.886688 23.5385 429.146)" stroke="#FDB913" stroke-width="2.94691"/>
<line y1="-1.47346" x2="44.3593" y2="-1.47346" transform="matrix(0.716596 0.697489 -0.474169 0.880434 53.2194 398.318)" stroke="#FDB913" stroke-width="2.94691"/>
<line y1="-1.47346" x2="44.3593" y2="-1.47346" transform="matrix(0.725846 -0.687857 0.462369 0.886688 127.85 431.744)" stroke="#006A44" stroke-width="2.94691"/>
<line y1="-1.47346" x2="44.3593" y2="-1.47346" transform="matrix(0.716596 0.697489 -0.474169 0.880434 157.531 400.916)" stroke="#006A44" stroke-width="2.94691"/>
<line y1="-1.47346" x2="44.3593" y2="-1.47346" transform="matrix(0.725846 -0.687857 0.462369 0.886688 145.948 431.867)" stroke="#006A44" stroke-width="2.94691"/>
<line y1="-1.47346" x2="44.3593" y2="-1.47346" transform="matrix(0.716596 0.697489 -0.474169 0.880434 175.629 401.039)" stroke="#006A44" stroke-width="2.94691"/>
<line y1="-1.47346" x2="44.3593" y2="-1.47346" transform="matrix(0.725846 -0.687857 0.462369 0.886688 255.701 429.025)" stroke="#C1272D" stroke-width="2.94691"/>
<line y1="-1.47346" x2="44.3593" y2="-1.47346" transform="matrix(0.716596 0.697489 -0.474169 0.880434 285.382 398.197)" stroke="#C1272D" stroke-width="2.94691"/>
<line y1="-1.47346" x2="44.3593" y2="-1.47346" transform="matrix(0.725846 -0.687857 0.462369 0.886688 273.799 429.146)" stroke="#C1272D" stroke-width="2.94691"/>
<line y1="-1.47346" x2="44.3593" y2="-1.47346" transform="matrix(0.716596 0.697489 -0.474169 0.880434 303.48 398.318)" stroke="#C1272D" stroke-width="2.94691"/>
<circle cx="53.8801" cy="487.732" r="14.8904" transform="rotate(-1.53699 53.8801 487.732)" stroke="#FDB913" stroke-width="1.56741"/>
<line x1="55.1722" y1="467.934" x2="54.762" y2="472.126" stroke="#FDB913" stroke-width="1.56741"/>
<line x1="58.9482" y1="468.996" x2="57.8993" y2="473.076" stroke="#FDB913" stroke-width="1.56741"/>
<line x1="63.4079" y1="470.595" x2="61.5311" y2="474.366" stroke="#FDB913" stroke-width="1.56741"/>
<line x1="67.1971" y1="473.233" x2="64.645" y2="476.584" stroke="#FDB913" stroke-width="1.56741"/>
<line x1="70.7489" y1="478.035" x2="67.1259" y2="480.184" stroke="#FDB913" stroke-width="1.56741"/>
<line x1="72.4581" y1="482.731" x2="68.4156" y2="483.915" stroke="#FDB913" stroke-width="1.56741"/>
<line x1="73.2702" y1="487.996" x2="69.0618" y2="488.177" stroke="#FDB913" stroke-width="1.56741"/>
<line x1="72.5439" y1="492.812" x2="68.4833" y2="491.692" stroke="#FDB913" stroke-width="1.56741"/>
<line x1="70.3205" y1="497.558" x2="66.7249" y2="495.363" stroke="#FDB913" stroke-width="1.56741"/>
<line x1="67.8719" y1="501.018" x2="64.8776" y2="498.055" stroke="#FDB913" stroke-width="1.56741"/>
<line x1="64.116" y1="503.511" x2="61.8931" y2="499.933" stroke="#FDB913" stroke-width="1.56741"/>
<line x1="60.2158" y1="505.389" x2="58.7335" y2="501.446" stroke="#FDB913" stroke-width="1.56741"/>
<line x1="55.2135" y1="506.553" x2="55.0561" y2="502.343" stroke="#FDB913" stroke-width="1.56741"/>
<line x1="49.4439" y1="506.322" x2="50.4933" y2="502.243" stroke="#FDB913" stroke-width="1.56741"/>
<line x1="45.1777" y1="504.282" x2="47.5987" y2="500.835" stroke="#FDB913" stroke-width="1.56741"/>
<line x1="41.4974" y1="502.263" x2="44.2804" y2="499.101" stroke="#FDB913" stroke-width="1.56741"/>
<line x1="38.5972" y1="499.125" x2="42.1541" y2="496.869" stroke="#FDB913" stroke-width="1.56741"/>
<line x1="36.8979" y1="495.593" x2="40.8299" y2="494.082" stroke="#FDB913" stroke-width="1.56741"/>
<line x1="35.4987" y1="492.684" x2="39.6332" y2="491.878" stroke="#FDB913" stroke-width="1.56741"/>
<line x1="34.6169" y1="488.673" x2="38.8209" y2="488.938" stroke="#FDB913" stroke-width="1.56741"/>
<line x1="34.563" y1="485.901" x2="38.7669" y2="486.166" stroke="#FDB913" stroke-width="1.56741"/>
<line x1="35.2686" y1="481.763" x2="39.2843" y2="483.034" stroke="#FDB913" stroke-width="1.56741"/>
<line x1="37.1456" y1="478.098" x2="40.5872" y2="480.527" stroke="#FDB913" stroke-width="1.56741"/>
<line x1="38.8496" y1="474.963" x2="42.2906" y2="477.393" stroke="#FDB913" stroke-width="1.56741"/>
<line x1="42.5536" y1="472.357" x2="45.4443" y2="475.421" stroke="#FDB913" stroke-width="1.56741"/>
<line x1="46.2913" y1="469.393" x2="47.7386" y2="473.349" stroke="#FDB913" stroke-width="1.56741"/>
<line x1="50.4856" y1="468.428" x2="50.9016" y2="472.62" stroke="#FDB913" stroke-width="1.56741"/>
<circle cx="176.29" cy="490.453" r="14.8904" transform="rotate(-1.53699 176.29 490.453)" stroke="#006A44" stroke-width="1.56741"/>
<line x1="177.582" y1="470.654" x2="177.172" y2="474.847" stroke="#006A44" stroke-width="1.56741"/>
<line x1="181.358" y1="471.717" x2="180.309" y2="475.796" stroke="#006A44" stroke-width="1.56741"/>
<line x1="185.818" y1="473.316" x2="183.941" y2="477.087" stroke="#006A44" stroke-width="1.56741"/>
<line x1="189.607" y1="475.953" x2="187.055" y2="479.304" stroke="#006A44" stroke-width="1.56741"/>
<line x1="193.159" y1="480.756" x2="189.536" y2="482.905" stroke="#006A44" stroke-width="1.56741"/>
<line x1="194.868" y1="485.451" x2="190.826" y2="486.635" stroke="#006A44" stroke-width="1.56741"/>
<line x1="195.68" y1="490.717" x2="191.472" y2="490.898" stroke="#006A44" stroke-width="1.56741"/>
<line x1="194.954" y1="495.533" x2="190.893" y2="494.413" stroke="#006A44" stroke-width="1.56741"/>
<line x1="192.731" y1="500.278" x2="189.135" y2="498.084" stroke="#006A44" stroke-width="1.56741"/>
<line x1="190.282" y1="503.739" x2="187.288" y2="500.776" stroke="#006A44" stroke-width="1.56741"/>
<line x1="186.526" y1="506.232" x2="184.303" y2="502.654" stroke="#006A44" stroke-width="1.56741"/>
<line x1="182.626" y1="508.11" x2="181.144" y2="504.167" stroke="#006A44" stroke-width="1.56741"/>
<line x1="177.624" y1="509.273" x2="177.466" y2="505.064" stroke="#006A44" stroke-width="1.56741"/>
<line x1="171.854" y1="509.043" x2="172.903" y2="504.964" stroke="#006A44" stroke-width="1.56741"/>
<line x1="167.588" y1="507.003" x2="170.009" y2="503.556" stroke="#006A44" stroke-width="1.56741"/>
<line x1="163.907" y1="504.984" x2="166.69" y2="501.822" stroke="#006A44" stroke-width="1.56741"/>
<line x1="161.007" y1="501.846" x2="164.564" y2="499.589" stroke="#006A44" stroke-width="1.56741"/>
<line x1="159.308" y1="498.313" x2="163.24" y2="496.803" stroke="#006A44" stroke-width="1.56741"/>
<line x1="157.909" y1="495.405" x2="162.043" y2="494.599" stroke="#006A44" stroke-width="1.56741"/>
<line x1="157.027" y1="491.394" x2="161.231" y2="491.659" stroke="#006A44" stroke-width="1.56741"/>
<line x1="156.973" y1="488.622" x2="161.177" y2="488.887" stroke="#006A44" stroke-width="1.56741"/>
<line x1="157.679" y1="484.483" x2="161.695" y2="485.755" stroke="#006A44" stroke-width="1.56741"/>
<line x1="159.556" y1="480.819" x2="162.997" y2="483.247" stroke="#006A44" stroke-width="1.56741"/>
<line x1="161.26" y1="477.684" x2="164.701" y2="480.114" stroke="#006A44" stroke-width="1.56741"/>
<line x1="164.964" y1="475.077" x2="167.854" y2="478.141" stroke="#006A44" stroke-width="1.56741"/>
<line x1="168.701" y1="472.114" x2="170.149" y2="476.069" stroke="#006A44" stroke-width="1.56741"/>
<line x1="172.896" y1="471.149" x2="173.312" y2="475.341" stroke="#006A44" stroke-width="1.56741"/>
<circle cx="304.14" cy="487.732" r="14.8904" transform="rotate(-1.53699 304.14 487.732)" stroke="#C1272D" stroke-width="1.56741"/>
<line x1="305.433" y1="467.934" x2="305.022" y2="472.126" stroke="#C1272D" stroke-width="1.56741"/>
<line x1="309.208" y1="468.996" x2="308.16" y2="473.076" stroke="#C1272D" stroke-width="1.56741"/>
<line x1="313.668" y1="470.595" x2="311.792" y2="474.366" stroke="#C1272D" stroke-width="1.56741"/>
<line x1="317.457" y1="473.233" x2="314.905" y2="476.584" stroke="#C1272D" stroke-width="1.56741"/>
<line x1="321.009" y1="478.035" x2="317.386" y2="480.184" stroke="#C1272D" stroke-width="1.56741"/>
<line x1="322.718" y1="482.731" x2="318.676" y2="483.915" stroke="#C1272D" stroke-width="1.56741"/>
<line x1="323.531" y1="487.996" x2="319.322" y2="488.177" stroke="#C1272D" stroke-width="1.56741"/>
<line x1="322.804" y1="492.812" x2="318.744" y2="491.692" stroke="#C1272D" stroke-width="1.56741"/>
<line x1="320.581" y1="497.558" x2="316.985" y2="495.363" stroke="#C1272D" stroke-width="1.56741"/>
<line x1="318.132" y1="501.018" x2="315.138" y2="498.055" stroke="#C1272D" stroke-width="1.56741"/>
<line x1="314.377" y1="503.511" x2="312.154" y2="499.933" stroke="#C1272D" stroke-width="1.56741"/>
<line x1="310.476" y1="505.389" x2="308.994" y2="501.446" stroke="#C1272D" stroke-width="1.56741"/>
<line x1="305.474" y1="506.553" x2="305.317" y2="502.343" stroke="#C1272D" stroke-width="1.56741"/>
<line x1="299.704" y1="506.322" x2="300.754" y2="502.243" stroke="#C1272D" stroke-width="1.56741"/>
<line x1="295.438" y1="504.282" x2="297.859" y2="500.835" stroke="#C1272D" stroke-width="1.56741"/>
<line x1="291.758" y1="502.263" x2="294.541" y2="499.101" stroke="#C1272D" stroke-width="1.56741"/>
<line x1="288.858" y1="499.125" x2="292.415" y2="496.869" stroke="#C1272D" stroke-width="1.56741"/>
<line x1="287.158" y1="495.593" x2="291.09" y2="494.082" stroke="#C1272D" stroke-width="1.56741"/>
<line x1="285.759" y1="492.684" x2="289.894" y2="491.878" stroke="#C1272D" stroke-width="1.56741"/>
<line x1="284.877" y1="488.673" x2="289.081" y2="488.938" stroke="#C1272D" stroke-width="1.56741"/>
<line x1="284.823" y1="485.901" x2="289.027" y2="486.166" stroke="#C1272D" stroke-width="1.56741"/>
<line x1="285.529" y1="481.763" x2="289.545" y2="483.034" stroke="#C1272D" stroke-width="1.56741"/>
<line x1="287.406" y1="478.098" x2="290.848" y2="480.527" stroke="#C1272D" stroke-width="1.56741"/>
<line x1="289.11" y1="474.963" x2="292.551" y2="477.393" stroke="#C1272D" stroke-width="1.56741"/>
<line x1="292.814" y1="472.357" x2="295.705" y2="475.421" stroke="#C1272D" stroke-width="1.56741"/>
<line x1="296.552" y1="469.393" x2="297.999" y2="473.349" stroke="#C1272D" stroke-width="1.56741"/>
<line x1="300.746" y1="468.428" x2="301.162" y2="472.62" stroke="#C1272D" stroke-width="1.56741"/>
</svg>
